<?xml version="1.0" standalone="no"?>
<!DOCTYPE svg PUBLIC "-//W3C//DTD SVG 20010904//EN"
 "http://www.w3.org/TR/2001/REC-SVG-20010904/DTD/svg10.dtd">
<svg version="1.0" xmlns="http://www.w3.org/2000/svg"
 width="356.000000pt" height="356.000000pt" viewBox="0 0 356.000000 356.000000"
 preserveAspectRatio="xMidYMid meet">
<metadata>
Created by potrace 1.14, written by Peter Selinger 2001-2017
</metadata>
<g transform="translate(0.000000,356.000000) scale(0.100000,-0.100000)"
fill="#000000" stroke="none">
<path d="M2648 3147 c-90 -26 -160 -101 -177 -192 -31 -164 86 -306 253 -305
86 1 163 45 212 122 123 192 -65 437 -288 375z"/>
<path d="M1705 2765 c-58 -27 -518 -350 -539 -378 -14 -19 -21 -43 -21 -72 0
-75 57 -128 136 -127 40 1 74 22 399 246 l99 69 162 -44 c88 -24 166 -47 172
-51 14 -8 44 36 -432 -622 -335 -461 -378 -516 -405 -521 -17 -2 -152 -14
-301 -26 -296 -23 -324 -30 -362 -88 -60 -89 5 -201 116 -201 44 0 579 45 661
56 41 5 53 15 149 112 57 59 119 132 139 162 49 77 122 162 137 158 26 -6 454
-303 455 -316 0 -6 -55 -162 -121 -345 -67 -182 -126 -346 -131 -364 -11 -41
14 -106 52 -133 37 -26 114 -27 156 -1 36 22 18 -20 200 476 154 421 165 466
131 518 -10 15 -94 91 -187 169 -94 78 -170 145 -170 150 0 13 259 466 270
473 5 3 43 -46 84 -110 106 -162 88 -155 379 -155 258 0 274 3 316 56 26 33
29 118 5 152 -32 46 -61 52 -248 52 -96 0 -182 3 -192 7 -9 3 -90 117 -179
252 -90 135 -172 255 -184 265 -14 13 -136 50 -354 108 -183 48 -339 88 -347
87 -8 0 -28 -6 -45 -14z"/>
<path d="M580 2061 c-37 -36 -39 -73 -5 -106 l24 -25 439 0 c427 0 439 1 460
20 32 30 33 82 1 115 -19 19 -35 20 -455 23 l-435 3 -29 -30z"/>
<path d="M380 1837 c-61 -31 -61 -108 1 -140 31 -16 69 -17 456 -15 416 3 423
3 444 24 29 30 30 88 1 117 -23 22 -23 22 -450 25 -332 1 -433 -1 -452 -11z"/>
<path d="M214 1576 c-33 -15 -44 -33 -44 -72 0 -38 16 -61 51 -73 43 -15 824
-15 866 -1 47 17 69 84 39 122 -26 35 -62 38 -474 38 -319 -1 -414 -4 -438
-14z"/>
</g>
</svg>
