<?xml version="1.0" standalone="no"?>
<!DOCTYPE svg PUBLIC "-//W3C//DTD SVG 20010904//EN"
 "http://www.w3.org/TR/2001/REC-SVG-20010904/DTD/svg10.dtd">
<svg version="1.0" xmlns="http://www.w3.org/2000/svg"
 width="512.000000pt" height="512.000000pt" viewBox="0 0 512.000000 512.000000"
 preserveAspectRatio="xMidYMid meet">
<metadata>
Created by potrace 1.14, written by Peter Selinger 2001-2017
</metadata>
<g transform="translate(0.000000,512.000000) scale(0.100000,-0.100000)"
fill="#000000" stroke="none">
<path d="M168 4613 c-55 -16 -112 -63 -141 -116 l-22 -42 -2 -1886 -3 -1885
26 -52 c31 -63 83 -108 144 -126 37 -11 474 -13 2405 -12 l2360 1 46 23 c56
27 94 68 120 128 18 44 19 91 19 1907 0 1255 -3 1874 -10 1899 -16 56 -69 119
-125 147 l-49 26 -2362 1 c-1887 0 -2371 -2 -2406 -13z m4402 -750 l0 -213
-1411 0 c-1166 0 -1410 2 -1406 13 3 7 64 103 136 213 l131 200 1275 0 1275 0
0 -213z m-3836 123 c38 -16 73 -60 76 -96 5 -57 -1 -74 -40 -112 -34 -31 -48
-38 -82 -38 -72 0 -138 62 -138 132 0 34 31 86 65 108 35 23 73 25 119 6z
m363 -6 c88 -53 84 -178 -7 -225 -63 -33 -143 -5 -174 59 -21 44 -20 73 2 115
35 65 118 89 179 51z m338 6 c69 -29 97 -127 54 -187 -57 -81 -164 -77 -220 7
-36 55 -15 134 46 174 36 24 73 25 120 6z m1412 -765 l31 -1 -23 -87 c-13 -49
-46 -182 -74 -298 -28 -115 -71 -295 -96 -400 -26 -104 -48 -197 -50 -205 -2
-8 -18 -73 -35 -145 -74 -307 -111 -462 -121 -497 l-10 -38 -114 0 -115 0 9
23 c5 12 8 24 8 27 0 7 19 90 59 253 18 75 36 147 38 160 2 12 13 58 24 102
12 44 23 91 26 105 2 14 18 84 36 155 17 72 46 193 65 270 60 247 104 431 109
456 30 134 20 126 136 122 36 -1 79 -2 97 -2z m-707 -388 l0 -158 -138 -52
c-598 -225 -664 -253 -604 -253 10 0 22 -4 28 -8 5 -5 43 -21 84 -37 41 -15
93 -36 115 -45 22 -10 147 -59 278 -110 l237 -93 0 -155 c0 -142 -1 -154 -17
-149 -15 4 -341 145 -483 208 -25 11 -171 75 -325 142 l-280 122 0 134 0 134
125 53 c69 30 134 58 145 63 11 6 193 85 405 176 212 91 394 170 405 175 11 5
21 9 23 9 1 1 2 -70 2 -156z m1435 -103 c182 -78 371 -160 421 -182 l91 -39
-1 -132 -1 -131 -130 -57 c-155 -68 -109 -49 -580 -254 -208 -91 -384 -165
-390 -165 -7 0 -10 17 -9 43 2 23 3 92 4 152 l0 110 138 54 c75 29 225 88 332
130 107 43 216 85 243 95 52 19 59 31 25 39 -13 3 -173 64 -357 136 -183 72
-344 134 -357 137 -28 7 -30 19 -26 190 l3 131 132 -57 c73 -31 281 -121 462
-200z m-2405 -1664 c0 -2 -79 -64 -176 -137 l-177 -134 -313 -1 c-173 0 -314
2 -314 5 1 3 80 66 177 139 l176 132 313 0 c173 0 314 -2 314 -4z m2667 -128
c95 -72 173 -134 173 -137 0 -4 -653 -7 -1450 -7 -798 0 -1449 4 -1448 8 2 5
80 67 173 138 l170 129 1104 1 1104 0 174 -132z m916 0 c97 -73 176 -136 177
-139 0 -3 -141 -5 -314 -5 -297 1 -315 2 -341 21 -35 26 -95 72 -117 90 -9 7
-59 46 -112 85 -53 40 -96 74 -96 76 0 2 141 4 314 4 l313 0 176 -132z"/>
</g>
</svg>
